<?xml version="1.0" encoding="UTF-8" standalone="no"?><!-- Generator: Gravit.io --><svg xmlns="http://www.w3.org/2000/svg" xmlns:xlink="http://www.w3.org/1999/xlink" style="isolation:isolate" viewBox="0 0 500 500" width="500pt" height="500pt"><defs><clipPath id="_clipPath_Jyd7KgLH4sctxHvklIIuVCciUAxehHnN"><rect width="500" height="500"/></clipPath></defs><g clip-path="url(#_clipPath_Jyd7KgLH4sctxHvklIIuVCciUAxehHnN)"><path d="M 35 0 L 465 0 C 484.317 0 500 15.683 500 35 L 500 465 C 500 484.317 484.317 500 465 500 L 35 500 C 15.683 500 0 484.317 0 465 L 0 35 C 0 15.683 15.683 0 35 0 Z" style="stroke:none;fill:#FFFFFF;stroke-miterlimit:10;"/><g><path d=" M 111.674 345.004 L 83.361 345.004 C 81.424 345.003 79.775 346.412 79.473 348.324 L 68.022 420.927 C 67.916 421.609 68.113 422.304 68.562 422.827 C 69.011 423.351 69.667 423.653 70.357 423.652 L 83.874 423.652 C 85.812 423.652 87.462 422.242 87.762 420.327 L 90.85 400.745 C 91.15 398.832 92.797 397.422 94.733 397.421 L 103.697 397.421 C 122.347 397.421 133.111 388.395 135.922 370.511 C 137.189 362.686 135.976 356.538 132.312 352.233 C 128.288 347.505 121.151 345.004 111.674 345.004 Z  M 114.941 371.521 C 113.392 381.68 105.63 381.68 98.124 381.68 L 93.852 381.68 L 96.849 362.707 C 97.03 361.56 98.019 360.715 99.18 360.715 L 101.138 360.715 C 106.251 360.715 111.074 360.715 113.566 363.63 C 115.053 365.369 115.508 367.952 114.941 371.521 Z  M 196.308 371.194 L 182.75 371.194 C 181.589 371.194 180.6 372.038 180.419 373.185 L 179.819 376.977 L 178.87 375.603 C 175.935 371.343 169.39 369.919 162.857 369.919 C 147.874 369.919 135.078 381.266 132.585 397.185 C 131.29 405.125 133.132 412.718 137.636 418.013 C 141.768 422.882 147.68 424.91 154.714 424.91 C 166.786 424.91 173.48 417.148 173.48 417.148 L 172.876 420.915 C 172.767 421.597 172.962 422.292 173.409 422.818 C 173.857 423.343 174.512 423.646 175.202 423.647 L 187.415 423.647 C 189.353 423.648 191.003 422.238 191.303 420.323 L 198.631 373.918 C 198.74 373.238 198.545 372.544 198.098 372.02 C 197.651 371.495 196.997 371.194 196.308 371.194 L 196.308 371.194 Z  M 177.409 397.582 C 176.101 405.328 169.953 410.528 162.112 410.528 C 158.175 410.528 155.028 409.265 153.008 406.872 C 151.004 404.496 150.242 401.113 150.88 397.346 C 152.101 389.666 158.353 384.297 166.074 384.297 C 169.924 384.297 173.054 385.576 175.116 387.99 C 177.181 390.428 178.001 393.831 177.409 397.582 Z  M 268.518 371.194 L 254.893 371.194 C 253.589 371.196 252.369 371.842 251.635 372.92 L 232.844 400.6 L 224.878 374.001 C 224.376 372.335 222.842 371.195 221.103 371.194 L 207.714 371.194 C 206.951 371.192 206.235 371.558 205.79 372.178 C 205.346 372.797 205.228 373.594 205.474 374.315 L 220.482 418.357 L 206.372 438.274 C 205.861 438.994 205.795 439.939 206.2 440.723 C 206.605 441.508 207.415 442 208.298 442 L 221.906 442 C 223.195 442.002 224.404 441.37 225.139 440.311 L 270.455 374.899 C 270.956 374.178 271.015 373.238 270.608 372.46 C 270.201 371.682 269.396 371.194 268.518 371.194 L 268.518 371.194 Z " fill="rgb(37,59,128)"/><path d=" M 313.627 345.004 L 285.31 345.004 C 283.375 345.005 281.728 346.413 281.426 348.324 L 269.975 420.927 C 269.867 421.608 270.063 422.302 270.511 422.826 C 270.958 423.35 271.613 423.652 272.302 423.652 L 286.833 423.652 C 288.188 423.65 289.339 422.663 289.549 421.325 L 292.799 400.745 C 293.099 398.832 294.746 397.422 296.682 397.421 L 305.641 397.421 C 324.296 397.421 335.056 388.395 337.871 370.511 C 339.142 362.686 337.921 356.538 334.257 352.233 C 330.237 347.505 323.104 345.004 313.627 345.004 L 313.627 345.004 Z  M 316.894 371.521 C 315.349 381.68 307.587 381.68 300.077 381.68 L 295.809 381.68 L 298.81 362.707 C 298.988 361.56 299.976 360.714 301.137 360.715 L 303.095 360.715 C 308.204 360.715 313.031 360.715 315.523 363.63 C 317.01 365.369 317.461 367.952 316.894 371.521 L 316.894 371.521 Z  M 398.257 371.194 L 384.707 371.194 C 383.545 371.191 382.556 372.037 382.38 373.185 L 381.78 376.977 L 380.828 375.603 C 377.892 371.343 371.351 369.919 364.818 369.919 C 349.836 369.919 337.043 381.266 334.551 397.185 C 333.259 405.125 335.093 412.718 339.597 418.013 C 343.737 422.882 349.641 424.91 356.675 424.91 C 368.747 424.91 375.441 417.148 375.441 417.148 L 374.837 420.915 C 374.728 421.598 374.924 422.295 375.373 422.821 C 375.823 423.347 376.48 423.649 377.172 423.647 L 389.381 423.647 C 391.317 423.646 392.964 422.236 393.264 420.323 L 400.596 373.918 C 400.701 373.236 400.503 372.541 400.053 372.018 C 399.603 371.494 398.947 371.193 398.257 371.194 L 398.257 371.194 Z  M 379.358 397.582 C 378.058 405.328 371.902 410.528 364.061 410.528 C 360.132 410.528 356.977 409.265 354.957 406.872 C 352.953 404.496 352.199 401.113 352.829 397.346 C 354.058 389.666 360.301 384.297 368.023 384.297 C 371.873 384.297 375.003 385.576 377.064 387.99 C 379.138 390.428 379.958 393.831 379.358 397.582 L 379.358 397.582 Z  M 414.241 346.995 L 402.62 420.927 C 402.513 421.608 402.708 422.302 403.156 422.826 C 403.603 423.35 404.258 423.652 404.947 423.652 L 416.63 423.652 C 418.572 423.652 420.22 422.244 420.518 420.327 L 431.977 347.728 C 432.085 347.047 431.889 346.353 431.442 345.829 C 430.994 345.304 430.34 345.001 429.65 345 L 416.568 345 C 415.408 345.004 414.422 345.85 414.241 346.995 Z " fill="rgb(23,155,215)"/></g><g><path d=" M 201.14 306.949 L 205.768 277.556 L 195.46 277.317 L 146.24 277.317 L 180.445 60.431 C 180.656 59.062 181.838 58.053 183.224 58.06 L 266.216 58.06 C 293.768 58.06 312.782 63.794 322.709 75.11 C 327.363 80.419 330.327 85.966 331.761 92.071 C 333.265 98.477 333.291 106.13 331.822 115.465 L 331.716 116.146 L 331.716 122.127 L 336.37 124.764 C 339.923 126.564 343.117 128.999 345.793 131.948 C 349.775 136.487 352.349 142.256 353.438 149.095 C 354.561 156.129 354.19 164.499 352.349 173.975 C 350.226 184.876 346.793 194.369 342.157 202.138 C 338.066 209.097 332.566 215.124 326.009 219.833 C 319.851 224.204 312.534 227.522 304.262 229.645 C 296.245 231.734 287.106 232.786 277.081 232.786 L 270.622 232.786 C 266.004 232.786 261.518 234.45 257.996 237.432 C 254.48 240.445 252.147 244.609 251.414 249.181 L 250.927 251.827 L 242.752 303.631 L 242.38 305.533 C 242.283 306.135 242.115 306.436 241.867 306.639 C 241.627 306.835 241.327 306.944 241.018 306.949 L 201.14 306.949 Z " fill="rgb(37,59,128)"/><path d=" M 340.776 116.836 C 340.529 118.42 340.246 120.039 339.927 121.702 C 328.982 177.895 291.538 197.307 243.716 197.307 L 219.367 197.307 C 213.519 197.307 208.59 201.554 207.679 207.322 L 195.212 286.386 L 191.682 308.798 C 191.398 310.597 191.915 312.43 193.097 313.816 C 194.28 315.201 196.01 315.999 197.831 316 L 241.018 316 C 246.132 316 250.476 312.284 251.281 307.241 L 251.706 305.046 L 259.837 253.446 L 260.359 250.615 C 261.155 245.554 265.508 241.838 270.622 241.838 L 277.081 241.838 C 318.922 241.838 351.677 224.85 361.25 175.692 C 365.249 155.156 363.179 138.009 352.597 125.949 C 349.243 122.219 345.238 119.131 340.776 116.836 Z " fill="rgb(23,155,215)"/><path d=" M 329.327 112.271 C 325.833 111.26 322.278 110.471 318.683 109.908 C 311.582 108.817 304.404 108.293 297.219 108.342 L 232.17 108.342 C 227.055 108.338 222.701 112.065 221.915 117.119 L 208.077 204.765 L 207.679 207.322 C 208.57 201.557 213.533 197.304 219.367 197.307 L 243.716 197.307 C 291.538 197.307 328.982 177.886 339.927 121.702 C 340.254 120.039 340.529 118.42 340.776 116.836 C 337.888 115.322 334.878 114.052 331.778 113.04 C 330.965 112.771 330.148 112.514 329.327 112.271 L 329.327 112.271 Z " fill="rgb(34,45,101)"/><path d=" M 221.915 117.119 C 222.694 112.062 227.053 108.335 232.17 108.351 L 297.219 108.351 C 304.925 108.351 312.118 108.855 318.683 109.917 C 323.126 110.615 327.507 111.66 331.787 113.04 C 335.017 114.111 338.016 115.376 340.785 116.836 C 344.041 96.07 340.759 81.932 329.531 69.129 C 317.153 55.034 294.812 49 266.225 49 L 183.233 49 C 177.393 49 172.412 53.247 171.509 59.025 L 136.941 278.14 C 136.615 280.199 137.206 282.297 138.559 283.883 C 139.912 285.469 141.89 286.384 143.975 286.386 L 195.212 286.386 L 208.077 204.765 L 221.915 117.119 Z " fill="rgb(37,59,128)"/></g></g></svg>